HIERARCHY
ROOT root
{
	OFFSET 0.000000 0.000000 0.000000
	CHANNELS 6 Xposition Yposition Zposition Zrotation Yrotation Xrotation
	JOINT lhip
	{
		OFFSET 0.058581 -0.082280 -0.017664
		CHANNELS 3 Zrotation Yrotation Xrotation
		JOINT lknee
		{
			OFFSET 0.043451 -0.386469 0.008037
			CHANNELS 3 Zrotation Yrotation Xrotation
			JOINT lankle
			{
				OFFSET -0.014790 -0.426874 -0.037428
				CHANNELS 3 Zrotation Yrotation Xrotation
				JOINT ltoe
				{
					OFFSET 0.041054 -0.060286 0.122042
					CHANNELS 3 Zrotation Yrotation Xrotation
					End Site
					{
						OFFSET 0.000000 0.000000 0.000000
					}
				}
			}
		}
	}
	JOINT rhip
	{
		OFFSET -0.060310 -0.090513 -0.013543
		CHANNELS 3 Zrotation Yrotation Xrotation
		JOINT rknee
		{
			OFFSET -0.043257 -0.383688 -0.004843
			CHANNELS 3 Zrotation Yrotation Xrotation
			JOINT rankle
			{
				OFFSET 0.019056 -0.420046 -0.034562
				CHANNELS 3 Zrotation Yrotation Xrotation
				JOINT rtoe
				{
					OFFSET -0.034840 -0.062106 0.130323
					CHANNELS 3 Zrotation Yrotation Xrotation
					End Site
					{
						OFFSET 0.000000 0.000000 0.000000
					}
				}
			}
		}
	}
	JOINT lowerback
	{
		OFFSET 0.004439 0.124404 -0.038385
		CHANNELS 3 Zrotation Yrotation Xrotation
		JOINT upperback
		{
			OFFSET 0.004488 0.137956 0.026820
			CHANNELS 3 Zrotation Yrotation Xrotation
			JOINT chest
			{
				OFFSET -0.002265 0.056032 0.002855
				CHANNELS 3 Zrotation Yrotation Xrotation
				JOINT lowerneck
				{
					OFFSET -0.013390 0.211636 -0.033468
					CHANNELS 3 Zrotation Yrotation Xrotation
					JOINT upperneck
					{
						OFFSET 0.010113 0.088937 0.050410
						CHANNELS 3 Zrotation Yrotation Xrotation
						End Site
						{
							OFFSET 0.000000 0.000000 0.000000
						}
					}
				}
				JOINT lclavicle
				{
					OFFSET 0.071702 0.114000 -0.018898
					CHANNELS 3 Zrotation Yrotation Xrotation
					JOINT lshoulder
					{
						OFFSET 0.122921 0.045205 -0.019046
						CHANNELS 3 Zrotation Yrotation Xrotation
						JOINT lelbow
						{
							OFFSET 0.255332 -0.015649 -0.022946
							CHANNELS 3 Zrotation Yrotation Xrotation
							JOINT lwrist
							{
								OFFSET 0.265709 0.012698 -0.007375
								CHANNELS 3 Zrotation Yrotation Xrotation
								End Site
								{
									OFFSET 0.000000 0.000000 0.000000
								}
							}
						}
					}
				}
				JOINT rclavicle
				{
					OFFSET -0.082954 0.112472 -0.023707
					CHANNELS 3 Zrotation Yrotation Xrotation
					JOINT rshoulder
					{
						OFFSET -0.113228 0.046853 -0.008472
						CHANNELS 3 Zrotation Yrotation Xrotation
						JOINT relbow
						{
							OFFSET -0.260127 -0.014369 -0.031269
							CHANNELS 3 Zrotation Yrotation Xrotation
							JOINT rwrist
							{
								OFFSET -0.269108 0.006794 -0.006027
								CHANNELS 3 Zrotation Yrotation Xrotation
								End Site
								{
									OFFSET 0.000000 0.000000 0.000000
								}
							}
						}
					}
				}
			}
		}
	}
}
MOTION
Frames: 14
Frame Time: 0.033333
0.288829 -0.225024 0.970063 175.426866 -0.895243 92.005545 5.265365 0.286808 -18.079732 -9.513636 -4.265127 19.737804 3.608977 7.559026 -9.352040 0.000000 -0.000000 0.000000 -6.402524 -3.831210 -23.678585 2.214586 -1.068568 26.617242 4.027725 -5.356031 -6.064071 0.000000 -0.000000 0.000000 0.604977 0.801673 25.255429 0.286235 -2.426301 4.854102 0.333436 0.214701 3.591973 -2.331231 7.883040 23.249120 5.256604 8.468360 17.508504 -20.262452 -16.815269 5.431073 -63.257544 -17.533292 26.061413 -15.879079 -59.388749 17.634554 25.197971 21.343955 -47.319415 15.537341 17.177490 3.994072 64.963958 18.242797 27.319508 -0.044887 52.944516 2.555602 -11.137657 -8.710178 -35.415081 
0.288526 -0.225207 0.970259 175.155080 -0.855565 92.006416 5.301187 0.297149 -17.999106 -9.465192 -4.221767 19.654317 3.581271 7.656622 -9.362627 0.000000 -0.000000 0.000000 -6.360922 -3.752091 -23.626703 2.260490 -0.969089 26.407573 4.041325 -5.301151 -5.918883 0.000000 -0.000000 0.000000 0.548731 0.860665 25.197573 0.223538 -2.446810 4.830178 0.303594 0.132609 3.658757 -2.258372 8.023232 23.197265 5.164447 8.483950 17.584954 -20.184135 -16.718268 5.277412 -63.226288 -17.620825 26.124846 -16.289241 -59.324232 18.008723 25.113236 21.348164 -47.378733 15.418715 17.027420 3.871770 65.094966 18.272841 27.463238 -0.027643 52.840305 2.604533 -11.113630 -8.643020 -35.382289 
0.288217 -0.225493 0.970787 174.875749 -0.774871 91.988331 5.342646 0.401987 -17.970120 -9.405924 -3.951209 19.686787 3.709123 7.722995 -9.354328 0.000000 -0.000000 0.000000 -6.240378 -3.644976 -23.508489 2.255413 -0.809768 26.091988 4.037916 -5.275806 -5.757525 0.000000 -0.000000 0.000000 0.432033 0.815468 25.144574 0.222955 -2.498188 4.845016 0.276354 0.088752 3.680228 -2.181964 8.272990 23.236346 5.048884 8.725638 17.685458 -20.289902 -16.680336 5.358732 -63.125130 -17.781968 25.990603 -16.365451 -59.203823 17.860456 25.046077 21.149708 -47.054021 15.576126 17.054122 4.023522 64.952681 18.434924 27.472190 -0.132028 52.748930 2.308885 -11.597396 -8.615464 -35.208473 
0.287848 -0.225661 0.970993 174.594399 -0.685877 92.027913 5.406269 0.422725 -17.946583 -9.299074 -3.921167 19.608988 3.641558 7.777589 -9.357987 0.000000 -0.000000 0.000000 -6.149613 -3.471284 -23.532199 2.246809 -0.740287 25.924961 4.061734 -5.213615 -5.630491 0.000000 -0.000000 0.000000 0.421808 0.805648 25.079793 0.178137 -2.504222 4.784274 0.228128 -0.017860 3.709797 -2.153557 8.403171 23.216250 4.993310 8.686619 17.659345 -20.286347 -16.713401 5.370140 -63.203644 -17.870277 26.055762 -16.381306 -59.064942 17.941625 24.810167 21.171406 -46.956443 15.465982 16.892506 3.886177 65.150357 18.410605 27.564636 -0.139621 52.732034 2.393045 -11.944644 -8.746470 -35.327986 
0.287611 -0.225909 0.971122 174.313336 -0.585776 92.039915 5.506931 0.498877 -17.935790 -9.259259 -3.709058 19.621269 3.658113 7.838603 -9.334059 0.000000 -0.000000 0.000000 -6.097249 -3.395431 -23.528227 2.362816 -0.684441 25.766535 4.181855 -5.057305 -5.489135 0.000000 -0.000000 0.000000 0.282688 0.787319 24.975524 0.182822 -2.581011 4.879171 0.265993 -0.020619 3.698683 -2.304917 8.455942 23.281974 5.093411 8.956338 17.374565 -20.283597 -16.883776 5.436956 -63.247229 -17.892811 26.091236 -16.017309 -59.086195 17.428077 24.973671 21.200560 -46.929188 15.356675 16.918500 3.747015 65.081873 18.243365 27.508111 -0.110894 52.836004 2.479251 -11.664402 -8.771064 -35.212783 
0.287422 -0.226268 0.971075 173.920886 -0.532620 92.088580 5.621203 0.479838 -17.878613 -9.231736 -3.456929 19.498700 3.686147 7.941261 -9.301532 0.000000 -0.000000 0.000000 -6.030861 -3.109543 -23.634436 2.352244 -0.575254 25.700432 4.121647 -4.985524 -5.436583 0.000000 -0.000000 0.000000 0.123720 0.746766 24.907201 0.203964 -2.537787 4.890051 0.088645 -0.031787 3.653466 -1.970070 8.890855 23.226960 4.917768 8.611767 17.531388 -20.198748 -16.725911 5.593828 -62.990358 -18.062589 26.127145 -16.901492 -59.232139 19.551251 20.162907 19.497807 -51.065013 15.389331 16.611599 3.883114 65.466741 18.405518 27.744756 -1.040268 52.760372 2.600117 -10.423453 -8.415085 -35.941975 
0.286929 -0.226393 0.971182 173.581988 -0.524323 92.096350 5.562345 0.703322 -17.823490 -9.212744 -3.505839 19.481993 3.723653 8.092285 -9.296783 0.000000 -0.000000 0.000000 -5.882865 -3.129640 -23.751014 2.298011 -0.178888 25.723141 4.116560 -4.925489 -5.363094 0.000000 -0.000000 0.000000 -0.019804 0.731620 24.951468 0.011001 -2.630362 4.739047 0.178547 -0.032988 3.682250 -2.536779 8.585735 23.249046 5.267771 9.113545 17.424396 -20.154812 -17.109305 5.342900 -63.317270 -17.711504 26.170045 -15.628430 -59.500354 16.852922 26.010234 22.749927 -46.252959 15.174572 16.850733 3.575413 65.567371 17.933923 27.646749 -0.935124 53.076883 1.897353 -11.568543 -9.382837 -34.531539 
0.286325 -0.226385 0.971395 173.395913 -0.512919 91.983222 5.539079 0.720103 -17.654306 -9.172538 -3.389346 19.469206 3.736341 8.078827 -9.339877 0.000000 -0.000000 0.000000 -5.839206 -3.040132 -23.621181 2.191793 -0.084794 25.628705 4.256414 -4.857096 -5.232598 0.000000 -0.000000 0.000000 -0.116347 0.601761 24.919561 -0.024549 -2.772432 4.908662 0.110651 -0.037693 3.640896 -2.506966 8.771641 23.305710 5.136348 9.198898 17.394226 -20.221095 -17.109061 5.443223 -63.241553 -17.899502 26.011315 -15.287666 -59.254670 16.943904 25.429574 21.998315 -46.382973 15.209536 16.832951 3.612866 65.683608 18.021359 27.590912 -1.235527 52.898184 1.767944 -11.624650 -9.170086 -34.922167 
0.285725 -0.226417 0.971584 173.282395 -0.496093 91.856426 5.452548 0.719436 -17.480333 -9.014450 -3.301503 19.468378 3.750369 8.079694 -9.413267 0.000000 -0.000000 0.000000 -5.832642 -2.935026 -23.469500 2.128223 -0.062559 25.542003 4.229699 -4.774762 -5.235601 0.000000 -0.000000 0.000000 -0.130887 0.458957 25.060565 -0.072175 -2.873763 4.894090 0.003727 -0.193861 3.516624 -2.355198 8.945589 23.352083 4.947386 9.153515 17.556768 -20.246428 -17.118505 5.582581 -63.106512 -17.897757 25.898694 -15.212585 -59.118257 17.797137 23.111597 20.854820 -47.692196 15.167825 16.766565 3.647863 65.891647 18.054195 27.662900 -1.599287 52.761221 1.743923 -11.340274 -9.079099 -35.119859 
0.285286 -0.226460 0.971625 173.053381 -0.496549 91.812943 5.480034 0.829704 -17.328864 -9.079983 -3.108785 19.346734 3.764221 8.097680 -9.353759 0.000000 -0.000000 0.000000 -5.866383 -2.835515 -23.435639 2.114959 -0.077034 25.439224 4.319104 -4.589545 -5.132866 0.000000 -0.000000 0.000000 -0.269490 0.397010 25.040574 -0.080146 -2.960320 4.944562 -0.036161 -0.191362 3.452785 -2.287159 9.190793 23.444625 4.897373 9.149899 17.558015 -20.331284 -17.148197 5.615362 -63.034532 -17.984926 25.840532 -15.134550 -58.897803 17.947367 22.139827 20.229749 -48.166942 15.241329 16.622991 3.668904 65.945711 18.006701 27.671869 -1.949097 52.814252 1.740811 -11.133470 -9.263382 -34.856734 
0.284733 -0.226491 0.971734 172.798329 -0.487788 91.778538 5.435931 0.849277 -17.203204 -8.986635 -3.164651 19.262547 3.782631 8.144388 -9.373091 0.000000 -0.000000 0.000000 -5.838531 -2.834035 -23.389977 2.134381 0.078386 25.308721 4.322123 -4.503700 -5.069563 0.000000 -0.000000 0.000000 -0.319820 0.332665 24.988427 -0.175068 -3.054375 4.929210 -0.109750 -0.236679 3.462967 -2.351276 9.070852 23.435039 4.926496 9.205995 17.698653 -20.271861 -17.291354 5.588190 -63.101093 -18.007625 25.885550 -14.951545 -58.786264 17.531230 22.813814 20.589981 -47.660990 15.201767 16.688060 3.627221 65.947000 17.887246 27.677074 -2.113593 52.799959 1.454352 -11.189849 -9.250444 -34.986383 
0.284715 -0.226593 0.971991 172.465576 -0.345410 91.780806 5.623070 1.017173 -17.127323 -9.016753 -2.948181 19.219714 3.786458 8.231046 -9.391859 0.000000 -0.000000 0.000000 -5.592479 -2.654640 -23.335944 2.031300 0.156761 25.081702 4.298717 -4.422446 -4.911104 0.000000 -0.000000 0.000000 -0.386307 0.346428 24.942157 -0.164381 -3.049906 4.863732 -0.105584 -0.262573 3.470849 -2.361176 9.228151 23.557341 4.950117 9.257846 17.626120 -20.385980 -17.369588 5.668114 -63.066460 -18.129510 25.853019 -14.961720 -58.553786 17.401796 23.094103 20.482231 -47.660776 15.216745 16.581835 3.758956 65.895941 17.967370 27.604854 -1.906536 52.897152 1.596033 -11.964891 -9.302249 -35.078432 
0.284128 -0.226621 0.972214 172.417164 -0.373560 91.776782 5.493640 0.865969 -17.127748 -8.861961 -2.867784 19.247696 3.851771 8.288633 -9.355009 0.000000 -0.000000 0.000000 -5.704008 -2.889582 -23.253600 2.202287 0.207122 24.894162 4.309341 -4.248253 -4.771786 0.000000 -0.000000 0.000000 -0.496851 0.305790 24.753544 -0.123182 -3.243922 5.065076 -0.116499 -0.361178 3.464957 -2.349554 9.277314 23.577560 4.864346 9.211051 17.540503 -20.475396 -17.447510 5.774441 -62.884274 -18.177330 25.784345 -15.024125 -58.581239 17.535577 22.070983 19.944110 -48.349726 15.185820 16.520321 3.697610 65.792589 18.007166 27.608853 -1.786303 52.890590 1.869781 -11.764065 -9.251252 -35.189088 
0.284456 -0.226556 0.971756 171.952068 -0.122921 91.887828 5.904686 1.100235 -17.117302 -8.983520 -2.661296 19.169469 3.972430 8.360504 -9.376222 0.000000 -0.000000 0.000000 -5.359488 -2.445884 -23.358836 2.137771 0.375882 24.759560 4.309600 -4.330532 -4.663043 0.000000 -0.000000 0.000000 -0.496207 0.354235 24.460057 -0.110789 -3.133316 5.194674 -0.160035 -0.356768 3.469968 -2.329685 9.393250 23.641699 4.870366 9.253666 17.379527 -20.334180 -17.490477 5.871599 -62.868657 -18.125756 25.768080 -14.983354 -58.668718 18.107884 20.781597 20.103358 -48.831101 15.034608 16.487547 3.791180 66.030284 18.003358 27.576005 -2.199969 53.036051 2.037616 -11.358301 -9.317370 -35.485644 
